<?xml version="1.0" encoding="UTF-8"?>
<!DOCTYPE svg PUBLIC "-//W3C//DTD SVG 1.1//EN" "http://www.w3.org/Graphics/SVG/1.1/DTD/svg11.dtd">
<svg xmlns="http://www.w3.org/2000/svg" version="1.1" width="1080px" height="320px" style="shape-rendering:geometricPrecision; text-rendering:geometricPrecision; image-rendering:optimizeQuality; fill-rule:evenodd; clip-rule:evenodd" xmlns:xlink="http://www.w3.org/1999/xlink">
<g><path style="opacity:1" fill="#010101" d="M -0.5,-0.5 C 0.833333,-0.5 2.16667,-0.5 3.5,-0.5C 62.4732,-0.335243 120.14,8.83142 176.5,27C 236.091,48.5303 295.757,69.8637 355.5,91C 414.936,111.349 476.103,121.182 539,120.5C 602.237,121.276 663.737,111.443 723.5,91C 793.533,65.4836 863.867,40.817 934.5,17C 980.643,5.76259 1027.31,-0.0707427 1074.5,-0.5C 1076.17,-0.5 1077.83,-0.5 1079.5,-0.5C 1079.5,40.5 1079.5,81.5 1079.5,122.5C 1017.52,121.806 957.186,131.306 898.5,151C 827.521,176.993 756.188,201.993 684.5,226C 587.831,249.282 491.164,249.282 394.5,226C 322.812,201.993 251.479,176.993 180.5,151C 121.814,131.306 61.4805,121.806 -0.5,122.5C -0.5,81.5 -0.5,40.5 -0.5,-0.5 Z"/></g>
</svg>
